# xmcd
# Track frame offsets:
# 150
# 14475
# 30481
# 46281
# 64180
# 81166
# 97832
# 120137
# 141905
# 157345
# 172718
# 193457
# 206769
# 233347
#
# Disc length: 3414 seconds
# Revision: 0
# Processed by: cddbd v1.4PL0 Copyright (c) Steve Scherf et al.
# Submitted via: VisiTrax 2.9.5.181 - For more info visit www.synapsa.com
#
DISCID=b20d540e
DTITLE=Lou Reed - New York  Lou Reed                        Between Thought A
DTITLE=nd Expression, Disc 2
DYEAR=1989
DGENRE=Rock
TTITLE0=Romeo Had Juliette
TTITLE1=Halloween Parade
TTITLE2=Dirty Blvd.
TTITLE3=Endless Cycle
TTITLE4=There Is No Time
TTITLE5=Last Great American Whale
TTITLE6=Beginning Of A Great Adventure
TTITLE7=Busload Of Faith
TTITLE8=Sick Of You
TTITLE9=Hold On
TTITLE10=Good Evening Mr. Waldheim
TTITLE11=Xmas In February
TTITLE12=Strawman
TTITLE13=Dime Store Mystery
EXTD=YEAR: 1989 ID3G: 17
EXTT0=
EXTT1=
EXTT2=
EXTT3=
EXTT4=
EXTT5=
EXTT6=
EXTT7=
EXTT8=
EXTT9=
EXTT10=
EXTT11=
EXTT12=
EXTT13=
PLAYORDER=
